<?xml version="1.0" standalone="no"?>
<!DOCTYPE svg PUBLIC "-//W3C//DTD SVG 20010904//EN"
 "http://www.w3.org/TR/2001/REC-SVG-20010904/DTD/svg10.dtd">
<svg version="1.0" xmlns="http://www.w3.org/2000/svg"
 width="1000.000000pt" height="1000.000000pt" viewBox="0 0 1000.000000 1000.000000"
 preserveAspectRatio="xMidYMid meet">

<g transform="translate(0.000000,1000.000000) scale(0.100000,-0.100000)"
fill="#000000" stroke="none">
<path d="M4675 7508 c-170 -99 -404 -235 -520 -302 -115 -67 -407 -236 -647
-376 l-438 -254 0 -130 c0 -72 -3 -216 -6 -321 l-7 -190 181 -104 c100 -57
188 -108 197 -115 13 -9 -17 -30 -175 -121 l-190 -110 0 -130 c0 -71 -3 -215
-6 -320 l-7 -190 969 -559 c533 -308 974 -559 979 -559 6 0 145 79 310 175
165 96 593 345 950 552 358 208 653 381 656 385 4 3 8 150 10 325 l4 319 -192
111 c-144 83 -189 114 -180 122 7 6 92 57 190 113 l177 103 0 136 c0 75 3 220
6 322 l6 185 -817 470 c-450 259 -886 509 -969 557 -83 48 -155 88 -161 87 -5
0 -149 -81 -320 -181z m1016 -860 c374 -216 679 -395 679 -398 0 -3 -71 -45
-157 -95 -86 -49 -171 -98 -188 -109 l-33 -19 -495 287 c-273 157 -498 286
-501 286 -4 0 -770 -443 -916 -530 -30 -18 -60 -33 -66 -33 -7 0 -96 48 -199
108 -150 86 -184 110 -173 120 7 6 189 113 403 238 215 124 514 298 665 386
151 88 281 158 289 155 7 -2 319 -181 692 -396z m-470 -819 c116 -67 207 -125
202 -130 -13 -12 -405 -239 -414 -239 -10 0 -410 229 -427 245 -10 9 32 37
195 133 114 67 214 119 221 117 7 -3 107 -59 223 -126z m-681 -749 c250 -145
460 -263 465 -263 6 0 35 15 65 33 310 185 915 530 925 528 18 -5 375 -212
375 -218 0 -8 -1348 -790 -1362 -790 -20 1 -1371 784 -1370 795 0 6 83 58 184
117 l183 107 40 -23 c22 -13 245 -142 495 -286z"/>
<path d="M5318 2987 c-81 -23 -141 -81 -175 -169 -13 -34 -17 -79 -17 -218 0
-209 14 -260 89 -329 114 -105 338 -89 425 31 48 66 60 123 60 289 0 175 -11
233 -54 297 -62 90 -205 133 -328 99z m170 -143 c13 -8 32 -29 42 -47 18 -28
20 -51 20 -195 0 -179 -9 -217 -56 -248 -36 -24 -122 -24 -157 -1 -55 36 -62
59 -65 217 -2 92 1 163 8 190 13 47 57 96 93 103 33 7 89 -2 115 -19z"/>
<path d="M3453 2978 c3 -7 40 -95 82 -195 l78 -183 -79 -186 c-44 -103 -80
-191 -82 -195 -2 -5 32 -9 76 -9 l79 0 65 157 c39 96 70 159 80 161 11 2 32
-40 80 -155 l64 -158 81 -3 81 -3 -79 186 c-43 103 -79 195 -79 205 0 10 36
102 79 204 l79 187 -81 -3 -81 -3 -64 -158 c-48 -115 -69 -157 -80 -155 -10 2
-41 65 -80 161 l-65 157 -79 0 c-60 0 -79 -3 -75 -12z"/>
<path d="M4290 2921 l0 -71 40 0 40 0 0 -250 0 -250 -40 0 -40 0 0 -71 0 -71
193 5 c217 5 253 13 309 69 57 57 68 109 68 318 0 249 -21 308 -129 359 -53
25 -65 26 -248 29 l-193 4 0 -71z m386 -103 c33 -32 43 -84 43 -213 0 -208
-22 -247 -139 -253 l-70 -4 0 252 0 252 70 -4 c59 -3 74 -8 96 -30z"/>
<path d="M5970 2920 l0 -70 206 0 206 0 -4 -22 c-3 -13 -72 -120 -155 -239
-172 -246 -193 -283 -193 -339 l0 -40 80 0 80 0 0 34 c0 37 14 61 218 352
l112 161 0 117 0 116 -275 0 -275 0 0 -70z"/>
</g>
</svg>
